<?xml version="1.0" encoding="utf-8"?>
<svg version="1.1" xmlns:xlink="http://www.w3.org/1999/xlink" width="28px" height="30px" xmlns="http://www.w3.org/2000/svg">
  <g transform="matrix(1 0 0 1 -366 -41 )">
    <path d="M 22.0769230769231 15.7533482142857  C 22.0769230769231 15.8984375  22.0264423076923 16.0267857142857  21.9254807692308 16.1383928571429  L 13.3100961538462 24.7098214285714  C 13.1979166666667 24.8102678571429  13.0689102564103 24.8604910714286  12.9230769230769 24.8604910714286  C 12.7772435897436 24.8604910714286  12.6482371794872 24.8102678571429  12.5360576923077 24.7098214285714  L 7.68990384615385 19.8883928571429  C 7.58894230769231 19.7767857142857  7.53846153846154 19.6484375  7.53846153846154 19.5033482142857  C 7.53846153846154 19.3582589285714  7.58894230769231 19.2354910714286  7.68990384615385 19.1350446428571  L 8.46394230769231 18.3649553571429  C 8.56490384615385 18.2645089285714  8.68830128205128 18.2142857142857  8.83413461538462 18.2142857142857  C 8.97996794871795 18.2142857142857  9.10897435897436 18.2645089285714  9.22115384615385 18.3649553571429  L 12.9230769230769 22.0479910714286  L 20.3942307692308 14.6149553571429  C 20.5064102564103 14.5145089285714  20.6354166666667 14.4642857142857  20.78125 14.4642857142857  C 20.9270833333333 14.4642857142857  21.0504807692308 14.5145089285714  21.1514423076923 14.6149553571429  L 21.9254807692308 15.3850446428571  C 22.0264423076923 15.4854910714286  22.0769230769231 15.6082589285714  22.0769230769231 15.7533482142857  Z M 2.15384615384615 11  L 2.15384615384615 27.8571428571429  L 25.8461538461538 27.8571428571429  L 25.8461538461538 11  L 2.15384615384615 11  Z M 8.46394230769231 7.88504464285714  C 8.56490384615385 7.78459821428571  8.61538461538462 7.65625  8.61538461538462 7.5  L 8.61538461538462 2.67857142857143  C 8.61538461538462 2.52232142857142  8.56490384615385 2.39397321428571  8.46394230769231 2.29352678571429  C 8.36298076923077 2.19308035714286  8.23397435897436 2.14285714285714  8.07692307692308 2.14285714285714  L 7 2.14285714285714  C 6.84294871794872 2.14285714285714  6.71394230769231 2.19308035714286  6.61298076923077 2.29352678571429  C 6.51201923076923 2.39397321428571  6.46153846153846 2.52232142857142  6.46153846153846 2.67857142857143  L 6.46153846153846 7.5  C 6.46153846153846 7.65625  6.51201923076923 7.78459821428571  6.61298076923077 7.88504464285714  C 6.71394230769231 7.98549107142857  6.84294871794872 8.03571428571429  7 8.03571428571429  L 8.07692307692308 8.03571428571429  C 8.23397435897436 8.03571428571429  8.36298076923077 7.98549107142857  8.46394230769231 7.88504464285714  Z M 21.3870192307692 7.88504464285714  C 21.4879807692308 7.78459821428571  21.5384615384615 7.65625  21.5384615384615 7.5  L 21.5384615384615 2.67857142857143  C 21.5384615384615 2.52232142857142  21.4879807692308 2.39397321428571  21.3870192307692 2.29352678571429  C 21.2860576923077 2.19308035714286  21.1570512820513 2.14285714285714  21 2.14285714285714  L 19.9230769230769 2.14285714285714  C 19.7660256410256 2.14285714285714  19.6370192307692 2.19308035714286  19.5360576923077 2.29352678571429  C 19.4350961538462 2.39397321428571  19.3846153846154 2.52232142857142  19.3846153846154 2.67857142857143  L 19.3846153846154 7.5  C 19.3846153846154 7.65625  19.4350961538462 7.78459821428571  19.5360576923077 7.88504464285714  C 19.6370192307692 7.98549107142857  19.7660256410256 8.03571428571429  19.9230769230769 8.03571428571429  L 21 8.03571428571429  C 21.1570512820513 8.03571428571429  21.2860576923077 7.98549107142857  21.3870192307692 7.88504464285714  Z M 27.3605769230769 4.921875  C 27.786858974359 5.34598214285714  28 5.84821428571428  28 6.42857142857143  L 28 27.8571428571429  C 28 28.4375  27.786858974359 28.9397321428571  27.3605769230769 29.3638392857143  C 26.9342948717949 29.7879464285714  26.4294871794872 30  25.8461538461538 30  L 2.15384615384615 30  C 1.57051282051282 30  1.06570512820513 29.7879464285714  0.639423076923077 29.3638392857143  C 0.213141025641026 28.9397321428571  0 28.4375  0 27.8571428571429  L 0 6.42857142857143  C 0 5.84821428571428  0.213141025641026 5.34598214285714  0.639423076923077 4.921875  C 1.06570512820513 4.49776785714285  1.57051282051282 4.28571428571429  2.15384615384615 4.28571428571429  L 4.30769230769231 4.28571428571429  L 4.30769230769231 2.67857142857143  C 4.30769230769231 1.94196428571429  4.5713141025641 1.31138392857143  5.09855769230769 0.786830357142858  C 5.62580128205128 0.262276785714286  6.25961538461539 0  7 0  L 8.07692307692308 0  C 8.81730769230769 0  9.4511217948718 0.262276785714286  9.97836538461538 0.786830357142858  C 10.505608974359 1.31138392857143  10.7692307692308 1.94196428571429  10.7692307692308 2.67857142857143  L 10.7692307692308 4.28571428571429  L 17.2307692307692 4.28571428571429  L 17.2307692307692 2.67857142857143  C 17.2307692307692 1.94196428571429  17.494391025641 1.31138392857143  18.0216346153846 0.786830357142858  C 18.5488782051282 0.262276785714286  19.1826923076923 0  19.9230769230769 0  L 21 0  C 21.7403846153846 0  22.3741987179487 0.262276785714286  22.9014423076923 0.786830357142858  C 23.4286858974359 1.31138392857143  23.6923076923077 1.94196428571429  23.6923076923077 2.67857142857143  L 23.6923076923077 4.28571428571429  L 25.8461538461538 4.28571428571429  C 26.4294871794872 4.28571428571429  26.9342948717949 4.49776785714285  27.3605769230769 4.921875  Z " fill-rule="nonzero" fill="#333333" stroke="none" transform="matrix(1 0 0 1 366 41 )" />
  </g>
</svg>