<?xml version="1.0" encoding="utf-8"?>
<svg version="1.1" xmlns:xlink="http://www.w3.org/1999/xlink" width="5px" height="5px" xmlns="http://www.w3.org/2000/svg">
  <g transform="matrix(1 0 0 1 -190 -716 )">
    <path d="M 4.66471354166667 1.2451171875  C 4.88823784722222 1.62814670138889  5 2.04644097222222  5 2.5  C 5 2.95355902777778  4.88823784722222 3.37185329861111  4.66471354166667 3.7548828125  C 4.44118923611111 4.13791232638889  4.13791232638889 4.44118923611111  3.7548828125 4.66471354166667  C 3.37185329861111 4.88823784722222  2.95355902777778 5  2.5 5  C 2.04644097222222 5  1.62814670138889 4.88823784722222  1.2451171875 4.66471354166667  C 0.862087673611111 4.44118923611111  0.558810763888889 4.13791232638889  0.335286458333333 3.7548828125  C 0.111762152777778 3.37185329861111  0 2.95355902777778  0 2.5  C 0 2.04644097222222  0.111762152777778 1.62814670138889  0.335286458333333 1.2451171875  C 0.558810763888889 0.862087673611111  0.862087673611111 0.558810763888889  1.2451171875 0.335286458333333  C 1.62814670138889 0.111762152777778  2.04644097222222 0  2.5 0  C 2.95355902777778 0  3.37185329861111 0.111762152777778  3.7548828125 0.335286458333333  C 4.13791232638889 0.558810763888889  4.44118923611111 0.862087673611111  4.66471354166667 1.2451171875  Z " fill-rule="nonzero" fill="#cccccc" stroke="none" transform="matrix(1 0 0 1 190 716 )" />
  </g>
</svg>