<?xml version="1.0" encoding="utf-8"?>
<svg version="1.1" xmlns:xlink="http://www.w3.org/1999/xlink" width="34px" height="29px" xmlns="http://www.w3.org/2000/svg">
  <g transform="matrix(1 0 0 1 -362 -37 )">
    <path d="M 15.8565022421525 21.75  L 16.9237668161435 21.75  L 19.1345291479821 19.3607954545455  L 16.237668161435 16.2301136363636  L 14.0269058295964 18.6193181818182  L 14.0269058295964 19.7727272727273  L 15.8565022421525 19.7727272727273  L 15.8565022421525 21.75  Z M 25.2903587443946 7.60014204545455  C 25.5063527653214 7.36671401515151  25.5127055306428 7.14015151515151  25.3094170403587 6.92045454545455  C 25.1061285500747 6.70075757575757  24.8964872944694 6.7076231060606  24.6804932735426 6.94105113636364  L 18.0100896860987 14.1498579545455  C 17.7940956651719 14.3832859848485  17.7877428998505 14.6098484848485  17.9910313901345 14.8295454545455  C 18.1943198804185 15.0492424242424  18.4039611360239 15.0423768939394  18.6199551569507 14.8089488636364  L 25.2903587443946 7.60014204545455  Z M 26.4529147982063 18.5575284090909  C 26.7070254110613 18.6673768939394  26.8340807174888 18.8664772727273  26.8340807174888 19.1548295454545  L 26.8340807174888 23.0681818181818  C 26.8340807174888 24.702178030303  26.2972720478326 26.0993134469697  25.2236547085202 27.2595880681818  C 24.1500373692078 28.4198626893939  22.8572496263079 29  21.3452914798206 29  L 5.48878923766816 29  C 3.97683109118087 29  2.68404334828102 28.4198626893939  1.61042600896861 27.2595880681818  C 0.536808669656203 26.0993134469697  0 24.702178030303  0 23.0681818181818  L 0 5.93181818181818  C 0 4.29782196969697  0.536808669656203 2.9006865530303  1.61042600896861 1.74041193181818  C 2.68404334828102 0.580137310606058  3.97683109118087 0  5.48878923766816 0  L 21.3452914798206 0  C 22.1457399103139 0  22.8890134529148 0.171638257575756  23.5751121076233 0.514914772727271  C 23.7656950672646 0.611032196969695  23.8800448430493 0.768939393939393  23.9181614349776 0.988636363636363  C 23.9562780269058 1.22206439393939  23.8991031390135 1.42116477272727  23.7466367713004 1.5859375  L 22.8127802690583 2.59517045454545  C 22.6349028400598 2.7874053030303  22.4316143497758 2.84232954545455  22.2029147982063 2.75994318181818  C 21.910687593423 2.67755681818182  21.6248131539611 2.63636363636364  21.3452914798206 3  L 5.48878923766816 3  C 4.65022421524664 2.63636363636364  3.93236173393124 2.95904356060606  3.33520179372197 3.60440340909091  C 2.73804185351271 4.24976325757576  2.43946188340807 5.02556818181818  3 5.93181818181818  L 3 23.0681818181818  C 2.43946188340807 23.9744318181818  2.73804185351271 24.7502367424242  3.33520179372197 25.3955965909091  C 3.93236173393124 26.0409564393939  4.65022421524664 26.3636363636364  5.48878923766816 26  L 21.3452914798206 26  C 22.1838565022422 26.3636363636364  22.9017189835575 26.0409564393939  23.4988789237668 25.3955965909091  C 24.0960388639761 24.7502367424242  24.3946188340807 23.9744318181818  24.3946188340807 23.0681818181818  L 24.3946188340807 20.4730113636364  C 24.3946188340807 20.2945075757576  24.4517937219731 20.1434659090909  24.5661434977578 20.0198863636364  L 25.7858744394619 18.7017045454545  C 25.9764573991031 18.4957386363636  26.1988041853513 18.4476799242424  26.4529147982063 18.5575284090909  Z M 12.1973094170404 17.7954545454545  L 25.0044843049327 3.95454545454545  L 30.4932735426009 9.88636363636364  L 17.6860986547085 23.7272727272727  L 12.1973094170404 23.7272727272727  L 12.1973094170404 17.7954545454545  Z M 34 5.27272727272727  C 34 5.8219696969697  33.8221225710015 6.28882575757576  33.4663677130045 6.67329545454545  L 31.7130044843049 8.56818181818182  L 26.2242152466368 2.63636363636364  L 27.9775784753363 0.741477272727271  C 28.3333333333333 0.357007575757573  28.7653213751868 0.164772727272729  29.2735426008969 0.164772727272729  C 29.7817638266069 0.164772727272729  30.2137518684604 0.357007575757573  30.5695067264574 0.741477272727271  L 33.4663677130045 3.87215909090909  C 33.8221225710015 4.25662878787878  34 4.72348484848485  34 5.27272727272727  Z " fill-rule="nonzero" fill="#000000" stroke="none" transform="matrix(1 0 0 1 362 37 )" />
  </g>
</svg>