<?xml version="1.0" encoding="utf-8"?>
<svg version="1.1" xmlns:xlink="http://www.w3.org/1999/xlink" width="14px" height="9px" xmlns="http://www.w3.org/2000/svg">
  <g transform="matrix(1 0 0 1 -385 -231 )">
    <path d="M 13.8268229166667 7.33359375  C 13.9422743055556 7.42265625  14 7.528125  14 7.65  L 14 8.55  C 14 8.671875  13.9422743055556 8.77734375  13.8268229166667 8.86640625  C 13.7113715277778 8.95546875  13.5746527777778 9  13.4166666666667 9  L 0.583333333333333 9  C 0.425347222222222 9  0.288628472222222 8.95546875  0.173177083333333 8.86640625  C 0.0577256944444444 8.77734375  0 8.671875  0 8.55  L 0 7.65  C 0 7.528125  0.0577256944444444 7.42265625  0.173177083333333 7.33359375  C 0.288628472222222 7.24453125  0.425347222222222 7.2  0.583333333333333 7.2  L 13.4166666666667 7.2  C 13.5746527777778 7.2  13.7113715277778 7.24453125  13.8268229166667 7.33359375  Z M 13.8268229166667 3.73359375  C 13.9422743055556 3.82265625  14 3.928125  14 4.05  L 14 4.95  C 14 5.071875  13.9422743055556 5.17734375  13.8268229166667 5.26640625  C 13.7113715277778 5.35546875  13.5746527777778 5.4  13.4166666666667 5.4  L 0.583333333333333 5.4  C 0.425347222222222 5.4  0.288628472222222 5.35546875  0.173177083333333 5.26640625  C 0.0577256944444444 5.17734375  0 5.071875  0 4.95  L 0 4.05  C 0 3.928125  0.0577256944444444 3.82265625  0.173177083333333 3.73359375  C 0.288628472222222 3.64453125  0.425347222222222 3.6  0.583333333333333 3.6  L 13.4166666666667 3.6  C 13.5746527777778 3.6  13.7113715277778 3.64453125  13.8268229166667 3.73359375  Z M 13.8268229166667 0.13359375  C 13.9422743055556 0.222656249999999  14 0.328124999999999  14 0.45  L 14 1.35  C 14 1.471875  13.9422743055556 1.57734375  13.8268229166667 1.66640625  C 13.7113715277778 1.75546875  13.5746527777778 1.8  13.4166666666667 1.8  L 0.583333333333333 1.8  C 0.425347222222222 1.8  0.288628472222222 1.75546875  0.173177083333333 1.66640625  C 0.0577256944444444 1.57734375  0 1.471875  0 1.35  L 0 0.45  C 0 0.328124999999999  0.0577256944444444 0.222656249999999  0.173177083333333 0.13359375  C 0.288628472222222 0.0445312499999995  0.425347222222222 0  0.583333333333333 0  L 13.4166666666667 0  C 13.5746527777778 0  13.7113715277778 0.0445312499999995  13.8268229166667 0.13359375  Z " fill-rule="nonzero" fill="#333333" stroke="none" transform="matrix(1 0 0 1 385 231 )" />
  </g>
</svg>